<svg width="76" height="40" xmlns="http://www.w3.org/2000/svg"><g fill-rule="nonzero" fill="none"><path d="M22.9 21.463c.224-.109.44-.235.643-.376.263-.16.526-.334.803-.536l.862-.58.803-.564c.19-.13.423-.305.715-.478l.613-.406.16 1.666-.569.405-.657.507c-.569.435-1.182.883-1.84 1.332a9.484 9.484 0 0 1-1.737.956 1.471 1.471 0 0 1-1.007 0 1.108 1.108 0 0 1-.599-.492 1.526 1.526 0 0 1-.219-.84c-.01-.328.029-.655.117-.97.21-.725.5-1.424.862-2.086.394-.71.803-1.448 1.255-2.057.453-.608.89-1.274 1.329-1.853.438-.58.847-1.058 1.182-1.449h2.263c-.252.233-.49.48-.715.739-.345.366-.666.753-.964 1.159-.335.434-.7.912-1.065 1.448-.365.536-.701 1.014-1.022 1.448-.304.468-.582.951-.833 1.448-.209.399-.38.816-.51 1.246a.489.489 0 0 0 0 .232s.043.159.13.101zm4.133-11.094a1.63 1.63 0 0 1 .481-1.173 1.718 1.718 0 0 1 1.854-.376 1.695 1.695 0 0 1 1.066 1.55c.01.453-.177.89-.51 1.201a1.688 1.688 0 0 1-1.887.419 1.665 1.665 0 0 1-1.034-1.62h.03z" fill="#FC4A1A"/><path d="M35.026 13.974c.33.068.627.244.846.5.166.258.25.56.242.865-.013.467-.12.927-.318 1.35-.217.493-.48.966-.785 1.41-.318.464-.66.91-1.028 1.335-.363.41-.68.773-.967 1.061a.852.852 0 0 0 0 .47c0 .106.196.076.438 0 .388-.206.762-.44 1.118-.697l.862-.637.937-.637.15 1.744-.65.5c-.301.228-.68.486-1.102.774a9.86 9.86 0 0 1-1.254.728 1.869 1.869 0 0 1-.877.242 1.327 1.327 0 0 1-.8-.258 2.213 2.213 0 0 1-.59-.727c-.318.272-.68.545-1.088.834a13.02 13.02 0 0 1-1.194.758c-.38.205-.774.383-1.179.53-.34.141-.704.219-1.073.228a1.388 1.388 0 0 1-1.088-.47 1.641 1.641 0 0 1-.408-1.137c.007-.447.094-.889.257-1.305a8.263 8.263 0 0 1 .71-1.516c.323-.495.685-1 1.088-1.516a14.48 14.48 0 0 1 3.023-2.776 11.25 11.25 0 0 1 1.692-1.03 6.724 6.724 0 0 1 1.632-.562c.456-.139.94-.16 1.406-.06zm-2.01 3.428l.136.364c.287-.383.55-.783.786-1.198.257-.607.302-.956.15-1.062-.15-.106-.558 0-1.193.319a10.005 10.005 0 0 0-2.72 1.971 20.637 20.637 0 0 0-2.327 2.79c-.3.416-.553.864-.756 1.335-.106.303-.106.485 0 .56.106.077.287.077.544 0 .318-.116.622-.269.907-.454.378-.229.742-.482 1.088-.758.393-.288.74-.577 1.073-.865a2.146 2.146 0 0 1 0-.424 3.85 3.85 0 0 1 0-.425 3.925 3.925 0 0 1 .136-1.061c.075-.301.187-.591.332-.865.124-.225.288-.425.484-.591a.92.92 0 0 1 .544-.213c.382.023.72.257.876.607l-.06-.03z" fill="#FC4A1A"/><path d="M41.695 23.013a3.013 3.013 0 0 1 .175-1.394c.19-.525.424-1.032.7-1.515.298-.523.625-1.029.978-1.514.35-.516.685-.97.977-1.394l.19-.273c-.482.424-.978.894-1.46 1.424-.48.53-1.035 1.03-1.56 1.515l-2.464 2.348c-.817.788-1.575 1.515-2.29 2.06a.679.679 0 0 1-.744-.075.827.827 0 0 1-.379-.743c.233-.56.525-1.181.875-1.848.35-.666.686-1.303 1.036-1.939l.597-1.12-1.137.923-2.056 1.515-.35-1.651c1.187-.857 2.3-1.82 3.325-2.878a79.37 79.37 0 0 0 2.304-2.56 2.12 2.12 0 0 1 .86-.743.65.65 0 0 1 .727.007c.22.15.335.42.294.69a2.708 2.708 0 0 1-.393 1.303c-.175.318-.336.606-.482.894-.146.287-.306.56-.452.863-.146.303-.306.621-.467.97-.16.348-.35.742-.568 1.181l1.37-1.348 1.459-1.364a38.11 38.11 0 0 1 1.342-1.181c.357-.257.727-.495 1.108-.712a2.133 2.133 0 0 1 1.05-.364c.314-.041.633.011.919.152a.91.91 0 0 1 .452.681 1.79 1.79 0 0 1-.335 1.167c-.205.379-.453.803-.773 1.288-.321.484-.627.939-.963 1.409-.335.47-.831 1.196-1.181 1.727-.301.406-.51.877-.613 1.378.24-.114.47-.251.686-.409l1.458-.954 1.56-1.091c.496-.364.861-.621 1.065-.788l.16 1.742-.86.667-1.05.788-1.167.848c-.393.258-.772.515-1.152.727a6.62 6.62 0 0 1-.991.5 1.535 1.535 0 0 1-.92-.09 1.143 1.143 0 0 1-.728-.728l-.132-.09z" fill="#FC4A1A"/><path d="M54.746 22.953a2.998 2.998 0 0 1 .176-1.394c.19-.526.426-1.033.704-1.515.3-.524.627-1.03.982-1.515.352-.515.689-.97.982-1.394l.19-.272c-.483.424-.982.893-1.465 1.424-.484.53-1.041 1.03-1.569 1.515l-2.448 2.408c-.821.788-1.584 1.515-2.302 2.06a.685.685 0 0 1-.748-.075.825.825 0 0 1-.381-.743c.235-.56.528-1.181.88-1.848.352-.666.689-1.303 1.04-1.939l.602-1.12-1.144.923-2.067 1.515-.352-1.651a25.132 25.132 0 0 0 3.343-2.878 79.514 79.514 0 0 0 2.316-2.56c.218-.324.517-.58.865-.743a.656.656 0 0 1 .73.007c.221.15.337.42.296.69a2.698 2.698 0 0 1-.395 1.303c-.176.318-.338.606-.484.894-.147.287-.308.56-.455.863l-.469.97c-.176.348-.352.742-.572 1.181l1.378-1.348c.48-.465.968-.92 1.467-1.364.469-.424.923-.833 1.348-1.181.33-.275.672-.533 1.027-.773.315-.212.679-.338 1.055-.363.316-.045.637.008.924.151a.91.91 0 0 1 .454.682c.027.418-.092.832-.337 1.166-.205.38-.454.803-.777 1.288s-.63.94-.968 1.409c-.337.47-.835 1.197-1.187 1.727a3.477 3.477 0 0 0-.616 1.378c.241-.114.472-.251.69-.409l1.465-.954 1.569-1.09c.498-.364.865-.622 1.07-.788l.176 1.711-.865.667-1.055.788-1.173.848c-.396.258-.777.515-1.158.727a6.668 6.668 0 0 1-.997.5 1.55 1.55 0 0 1-.924-.09 1.146 1.146 0 0 1-.733-.728l-.088-.06z" fill="#FC4A1A"/><path d="M69.462 14.225a.87.87 0 0 1 .509.621c.058.256.058.52 0 .776-.075.273-.19.534-.345.776a4.518 4.518 0 0 1-.389.55c-.48.579-.988 1.143-1.497 1.693a30.985 30.985 0 0 1-1.497 1.495c-.318.311-.594.657-.824 1.03-.15.254 0 .353.3.297l1.212-.663c.345-.198.674-.41.988-.621.315-.212.674-.438 1.049-.706l1.302-.93.165 1.65-1.318.889a26.06 26.06 0 0 1-1.497.93c-.524.297-.943.565-1.377.805-.359.2-.734.37-1.123.508-.57.197-.973.211-1.198 0a.946.946 0 0 1-.344-.804v-.508l-.375.282a4.963 4.963 0 0 1-.479.31c-.227.14-.462.267-.704.381-.252.13-.518.234-.793.31-.248.094-.512.141-.779.142A1.258 1.258 0 0 1 59.46 23a1.545 1.545 0 0 1-.33-.987c.016-.415.102-.825.255-1.213.183-.495.424-.968.72-1.411.326-.492.686-.963 1.077-1.411.405-.497.846-.969 1.318-1.41a13.384 13.384 0 0 1 2.86-1.877 5.961 5.961 0 0 1 2.754-.776c.471-.018.938.09 1.348.31zm-5.765 5.799c.51-.41 1.018-.847 1.498-1.326.479-.48.973-.917 1.377-1.327.343-.352.663-.724.958-1.114.255-.31.36-.536.315-.649-.045-.113-.135-.183-.315-.198a2.295 2.295 0 0 0-.868.269 13.65 13.65 0 0 0-1.617.93c-.66.42-1.282.892-1.857 1.411-.12.1-.314.325-.614.65-.308.343-.598.7-.868 1.071-.26.355-.49.728-.689 1.115-.194.367-.24.62-.12.776.12.155.195 0 .39 0 .23-.106.45-.229.659-.367.281-.187.551-.39.808-.607l.883-.69.06.056z" fill="#FC4A1A"/><path fill="#070707" d="M36.073 29.2l1.424-3.983h5.981l-4.785 8.536v5.377h-5.212v-5.349l-4.785-8.535h5.953zM59.13 39.13h-6.029l-.416-1.987h-2.702l-.416 1.987h-6.089l4.262-13.913h7.069L59.13 39.13zm-7.068-5.167l-.728-3.578-.728 3.578h1.456zM67.826 39.986a7.36 7.36 0 0 1-6.761-3.55 7.413 7.413 0 0 1 0-7.655 7.36 7.36 0 0 1 6.761-3.55 7.36 7.36 0 0 1 6.761 3.55 7.413 7.413 0 0 1 0 7.656 7.36 7.36 0 0 1-6.76 3.549zm0-9.803a2.43 2.43 0 0 0-2.396 1.35 2.446 2.446 0 0 0 .388 2.73c.678.741 1.741.99 2.676.623a2.44 2.44 0 0 0 1.548-2.277 2.3 2.3 0 0 0-.598-1.682c-.417-.457-1-.725-1.618-.744z"/><path d="M35.577 1.821C35.252.743 33.849-.146 31.412.364a11.01 11.01 0 0 0-5.42 2.783c-.694-.248-1.373-.525-2.097-.816A24.183 24.183 0 0 0 13.528 0C8.846.146 5.98 2.914 5.745 7.4a2.038 2.038 0 0 0 1.034 1.545c.171.105.389.105.56 0a.376.376 0 0 0 .134-.379A7.567 7.567 0 0 1 9.26 3.263a5.544 5.544 0 0 1 4.194-1.806h.25c3.078.158 6.092.926 8.862 2.258.68.277 1.329.553 1.964.772a53.512 53.512 0 0 0-5.346 7.167 29.686 29.686 0 0 0-5.154.132 1.893 1.893 0 0 0-1.123 1.078.36.36 0 0 0 .074.378c.091.05.2.055.296.015h4.8l-.74 1.136c-2.259 3.555-6.04 9.47-10.44 9.47h-.045a4.634 4.634 0 0 1-4.031-2.302 7.399 7.399 0 0 1-.65-6.119.432.432 0 0 0-.074-.437.862.862 0 0 0-.827-.32c-.251 0-.68.189-.975.888a8.64 8.64 0 0 0 1.02 6.818 6.057 6.057 0 0 0 5.02 2.826h.4c6.231 0 10.1-6.584 12.198-10.197.354-.612.664-1.137.93-1.457l.222-.364c1.182-.018 2.363.07 3.53.262.25 0 .354-.277.398-.393.163-.481.133-1.035-.295-1.18-.85-.132-1.71-.21-2.57-.234a46.263 46.263 0 0 1 5.272-6.526c2.222.663 4.598.622 6.794-.117 2.053-.815 2.673-2.185 2.363-3.19zm-7.665 1.908a8.326 8.326 0 0 1 4.165-2.097c1.329-.102 1.86.335 1.92.743.059.408-.783 1.369-2.334 1.588a9.473 9.473 0 0 1-3.751-.234z" fill="#FC4A1A"/></g></svg>