<svg xmlns="http://www.w3.org/2000/svg" viewBox="0 0 91.09 44.51"><defs><style>.cls-1{fill:#fc4a1a;}</style></defs><title>Asset 2</title><g id="Layer_2" data-name="Layer 2"><g id="Layer_1-2" data-name="Layer 1"><path class="cls-1" d="M3.28,26.77a66.21,66.21,0,0,0,10.32.63,72,72,0,0,0,10.32-1q3.28-3.81,6.87-7.33t7.2-7.3c.75-.79,1.45-1.53,2.11-2.21a23.75,23.75,0,0,0,1.69-1.91,9.63,9.63,0,0,0,1.06-1.57,2,2,0,0,0,.27-1.22,1.4,1.4,0,0,0-.95-1,7.15,7.15,0,0,0-2.08-.43,18.85,18.85,0,0,0-2.9,0c-1.08.07-2.19.2-3.34.36s-2.29.36-3.42.56-2.19.42-3.15.62-1.79.38-2.5.56-1.2.3-1.49.36A58.42,58.42,0,0,0,16.93,8a46.85,46.85,0,0,0-6.32,3,42.14,42.14,0,0,0-5.8,4A28.78,28.78,0,0,0,0,20.05v-3.8a46.55,46.55,0,0,1,4.29-3.87A39.31,39.31,0,0,1,8.9,9.2,43.89,43.89,0,0,1,14,6.62,60.58,60.58,0,0,1,19.85,4.5,18.57,18.57,0,0,1,22,3.77c1-.28,2.1-.58,3.39-.89S28,2.27,29.53,2s3-.51,4.49-.67,2.94-.23,4.33-.23a14.94,14.94,0,0,1,3.67.4,6,6,0,0,1,2.55,1.24,2.87,2.87,0,0,1,1,2.27A4.89,4.89,0,0,1,45,7.16,11,11,0,0,1,43.58,9.3c-1.26,1.43-2.55,2.83-3.89,4.2s-2.69,2.73-4,4.09-2.73,2.72-4.09,4.1-2.7,2.81-4,4.28h.13l.1,0q3-.47,6.06-.88c2-.27,4-.5,6-.67.84-.07,1.66-.12,2.47-.15s1.62-.06,2.46-.09a40,40,0,0,1,2.82-3c1.05-1,2.14-2.05,3.24-3.11s2.2-2.15,3.29-3.28a29.86,29.86,0,0,0,3-3.54,22.48,22.48,0,0,0,2.22-3.84,13.32,13.32,0,0,0,1.12-4.2,3.85,3.85,0,0,0,0-.93c0-.41-.13-1.18-.26-2.28l2.28,3.71a11.83,11.83,0,0,1-.73,3.93,19.27,19.27,0,0,1-1.85,3.76A30.11,30.11,0,0,1,57.21,15q-1.49,1.71-3.09,3.32t-3.23,3.08c-1.08,1-2.08,1.91-3,2.79l2.07.07c.69,0,1.37.06,2,.1l2.25,2.42c-.57,0-1.22-.09-1.93-.12l-2.24-.1-2.33-.07H45.5q-1.86,1.85-3.49,3.8a30.28,30.28,0,0,0-2.88,4.09,22.09,22.09,0,0,0-2,4.5,17.61,17.61,0,0,0-.77,5.05L34,41.66a33.31,33.31,0,0,1,1.51-4.87,30.06,30.06,0,0,1,1.93-4,26.35,26.35,0,0,1,2.32-3.34c.84-1,1.73-2,2.68-3l-1.18.07c-.34,0-.7.05-1.07.1q-2.69.22-5.46.59c-1.86.25-3.66.5-5.43.76l-4,.57c-.93,1.08-1.87,2.22-2.83,3.44a26.62,26.62,0,0,0-2.52,3.8A17.58,17.58,0,0,0,18.31,40a10.67,10.67,0,0,0,0,4.54l-2.39-3.08a7.36,7.36,0,0,1,.45-3.11,21,21,0,0,1,1.52-3.39,34.3,34.3,0,0,1,2-3.25c.73-1,1.38-1.91,1.95-2.66q-4,.46-8,.58a73.16,73.16,0,0,1-8.29-.25Z"/><path class="cls-1" d="M63.83,23.69A7.24,7.24,0,0,1,62.52,25c-.56.44-1.17.88-1.83,1.31s-1.34.84-2,1.24-1.33.74-1.9,1a4.46,4.46,0,0,0-.4,1.21,1.16,1.16,0,0,0,.13.8.8.8,0,0,0,.68.28,3.19,3.19,0,0,0,1.28-.4v0A10.7,10.7,0,0,0,60,29.71c.56-.3,1.13-.65,1.72-1s1.17-.77,1.77-1.18,1.16-.81,1.69-1.2l.43,1.92c-.71.52-1.44,1.06-2.2,1.6s-1.52,1-2.27,1.47a15,15,0,0,1-2.22,1.08,6,6,0,0,1-2.08.41,2.36,2.36,0,0,1-1.49-.43,2.31,2.31,0,0,1-.81-1.09,4,4,0,0,1-.23-1.51,5.68,5.68,0,0,1,.28-1.67,14.17,14.17,0,0,1,1.06-2.2,17.16,17.16,0,0,1,1.7-2.46,13.89,13.89,0,0,1,2.15-2.12,5.61,5.61,0,0,1,2.43-1.16,2,2,0,0,1,1.34.18,2.15,2.15,0,0,1,.88.86,2.05,2.05,0,0,1,.23,1.23A2.3,2.3,0,0,1,63.83,23.69Zm-3-.82c-.58.55-1,1-1.34,1.35a11.05,11.05,0,0,0-.88,1.09c.35-.2.7-.41,1-.63s.68-.45,1-.69a11.09,11.09,0,0,0,1.16-1.06,1.67,1.67,0,0,0,.53-1c0-.06-.26.05-.76.33-.11.07-.23.16-.37.27l-.39.33Z"/><path class="cls-1" d="M67.93,31.6a9.21,9.21,0,0,1-1.2.63,5.69,5.69,0,0,1-1.49.43A2,2,0,0,1,64,32.44a1.44,1.44,0,0,1-.53-1.34,5.73,5.73,0,0,1,.35-1.78,16.87,16.87,0,0,1,.84-2c.33-.67.67-1.29,1-1.87s.59-1,.79-1.35Q67.15,23,68,21.51t1.89-3.15c.66-1.1,1.33-2.22,2-3.35s1.35-2.2,2-3.2,1.3-1.87,1.89-2.64a12.28,12.28,0,0,1,1.59-1.76A2.61,2.61,0,0,1,79,6.72c.49,0,.74.16.74.56a8.41,8.41,0,0,1-.59,1.32c-.29.53-.63,1.11-1,1.74s-.81,1.28-1.28,1.94-.92,1.3-1.37,1.93L74.19,16l-1,1.38c-.55.77-1.11,1.54-1.67,2.3S70.44,21.19,70,22c-.68,1.06-1.36,2.15-2,3.26s-1.27,2.27-1.82,3.46a10.17,10.17,0,0,0-.36,1,2.56,2.56,0,0,0-.13.71c0,.33.49.15,1.48-.53.27-.15.65-.39,1.15-.71s1-.67,1.54-1L71.32,27l1.15-.85.16,2.12c-.57.46-1.2.93-1.87,1.39l-2,1.36L68,31.6Z"/><path class="cls-1" d="M75.14,31.6a8.6,8.6,0,0,1-1.2.63,5.69,5.69,0,0,1-1.49.43,2,2,0,0,1-1.28-.22c-.35-.21-.52-.65-.52-1.34A5.69,5.69,0,0,1,71,29.32a17,17,0,0,1,.85-2c.33-.67.66-1.29,1-1.87s.59-1,.79-1.35q.73-1.06,1.62-2.55t1.89-3.15l2-3.35c.68-1.14,1.36-2.2,2-3.2s1.29-1.87,1.88-2.64a12.28,12.28,0,0,1,1.59-1.76,2.61,2.61,0,0,1,1.54-.69c.5,0,.74.16.74.56a7.57,7.57,0,0,1-.59,1.32c-.29.53-.62,1.11-1,1.74s-.81,1.28-1.27,1.94l-1.38,1.93c-.45.63-.87,1.22-1.27,1.75s-.73,1-1,1.38c-.56.77-1.11,1.54-1.67,2.3S77.65,21.19,77.16,22c-.68,1.06-1.35,2.15-2,3.26s-1.26,2.27-1.81,3.46a8.24,8.24,0,0,0-.37,1,2.56,2.56,0,0,0-.13.71c0,.33.5.15,1.49-.53.26-.15.64-.39,1.14-.71s1-.67,1.54-1L78.54,27l1.14-.85.16,2.12c-.57.46-1.19.93-1.87,1.39L76,31l-.83.56Z"/><path class="cls-1" d="M89.21,20.19a1.76,1.76,0,0,1,1,.61,1.71,1.71,0,0,1,.3,1,4.22,4.22,0,0,1-.38,1.64,9.82,9.82,0,0,1-1,1.72A19.48,19.48,0,0,1,88,26.8c-.44.51-.84.94-1.19,1.29a1,1,0,0,0,.07.58c.06.12.24.1.52-.08a10.24,10.24,0,0,0,1.36-.85L89.77,27l1.13-.76.19,2.11-.79.6c-.38.29-.82.6-1.34.94a11.59,11.59,0,0,1-1.54.88,2.25,2.25,0,0,1-1.06.3,1.55,1.55,0,0,1-1-.32,2.62,2.62,0,0,1-.72-.87c-.39.33-.83.66-1.32,1a15.26,15.26,0,0,1-1.46.91,12.09,12.09,0,0,1-1.43.66,4,4,0,0,1-1.31.26,1.67,1.67,0,0,1-1.31-.56,2,2,0,0,1-.51-1.39,4.68,4.68,0,0,1,.31-1.57,9.67,9.67,0,0,1,.88-1.81,17.31,17.31,0,0,1,1.32-1.86,19.55,19.55,0,0,1,1.62-1.77,20.33,20.33,0,0,1,2-1.61,14.33,14.33,0,0,1,2.07-1.24,8.59,8.59,0,0,1,2-.69A3.56,3.56,0,0,1,89.21,20.19Zm-2.45,4.16a4,4,0,0,1,.16.43,10.53,10.53,0,0,0,1-1.45c.31-.73.37-1.15.19-1.28s-.67,0-1.44.38a12.56,12.56,0,0,0-3.31,2.37,25,25,0,0,0-2.85,3.39,8.66,8.66,0,0,0-.91,1.62c-.12.36-.12.58,0,.68s.34.09.66,0a7.21,7.21,0,0,0,1.11-.56c.42-.26.86-.56,1.33-.91s.89-.71,1.29-1.06a4.8,4.8,0,0,1,0-.52c0-.16,0-.33,0-.51a4.85,4.85,0,0,1,.17-1.29,4.51,4.51,0,0,1,.41-1,2.2,2.2,0,0,1,.58-.71,1,1,0,0,1,.66-.27,1.26,1.26,0,0,1,1.06.73Z"/></g></g></svg>