<svg xmlns="http://www.w3.org/2000/svg" viewBox="0 0 183.22 183.22"><defs><style>.cls-1{fill:#fc4a1a;}.cls-2{fill:#fff;}</style></defs><title>Asset 3</title><g id="Layer_2" data-name="Layer 2"><g id="Layer_1-2" data-name="Layer 1"><circle class="cls-1" cx="91.61" cy="91.61" r="91.61"/><path class="cls-2" d="M140.46,116.63l-10-6.48a3.35,3.35,0,1,0-3.65,5.62l10,6.48a3.35,3.35,0,1,0,3.65-5.62M114.4,89.06l-34,42.55a2.11,2.11,0,0,1-3.62-2.09l11.71-29.9a1,1,0,0,0-.84-1.37L68.4,96.42a1,1,0,0,1-.76-.47,1,1,0,0,1-.08-.89L84,53.05a1,1,0,0,1,1-.63l17.19,1.63a1,1,0,0,1,.82,1.42L90.1,83.84a1,1,0,0,0,0,.92,1,1,0,0,0,.78.5l22.79,2.17a1,1,0,0,1,.69,1.63M121,81.13l-18.76-1.66a1,1,0,0,1-.78-.49,1,1,0,0,1,0-.93L112,54.56a5.56,5.56,0,0,0-4.54-7.85L83,44.43a5.44,5.44,0,0,0-5.55,3.42l-19.06,49a4.12,4.12,0,0,0,3.44,5.61L79,104.16l-7.77,25.12a7.35,7.35,0,0,0,3.46,8.6c3,1.7,7.9,1,10.17-1.62l39.85-46.13a5.45,5.45,0,0,0-3.65-9m25.16,4.48H135.67a3.36,3.36,0,0,0,0,6.71h10.51a3.36,3.36,0,0,0,0-6.71M128.11,67.93a3.37,3.37,0,0,0,1.86-.56l10.15-6.79A3.35,3.35,0,0,0,136.4,55l-10.15,6.78a3.35,3.35,0,0,0,1.86,6.14M42.76,61.31,53.3,68.13a3.3,3.3,0,0,0,1.82.54A3.35,3.35,0,0,0,57,62.51L46.41,55.68a3.35,3.35,0,1,0-3.65,5.63M51.42,89a3.34,3.34,0,0,0-3.35-3.35H37a3.36,3.36,0,0,0,0,6.71h11A3.35,3.35,0,0,0,51.42,89m2,21.49L43.1,117.34a3.35,3.35,0,0,0,3.72,5.58L57.14,116a3.35,3.35,0,1,0-3.72-5.57"/></g></g></svg>