<svg xmlns="http://www.w3.org/2000/svg" viewBox="0 0 136.88 89.13"><defs><style>.cls-1{fill:none;stroke:#282d33;stroke-linecap:round;stroke-linejoin:round;stroke-width:4px;}.cls-2{fill:#fff;}.cls-3{fill:#f7b733;}</style></defs><title>Asset 4</title><g id="Layer_2" data-name="Layer 2"><g id="Layer_1-2" data-name="Layer 1"><line class="cls-1" x1="57.3" y1="75.86" x2="58.83" y2="82.49"/><line class="cls-1" x1="66.04" y1="75.86" x2="64.52" y2="82.49"/><rect class="cls-2" x="56.9" y="81.83" width="9.79" height="7.3"/><path class="cls-1" d="M61.8,2C46.82,2,33,14.56,31.36,30.27,29.68,43,36.13,57.59,50.39,69.4"/><path class="cls-1" d="M73,69.67C87.81,57,93.92,43,92.23,30.27,90.62,14.56,76.77,2,61.8,2"/><path class="cls-1" d="M61.82,2C38.24,17.49,33.37,45.45,53.57,69.15"/><path class="cls-1" d="M64.59,68.89A108.51,108.51,0,0,0,61.9,2,102.08,102.08,0,0,0,59,68.84"/><path class="cls-1" d="M70,69.09C89.88,45.43,85.12,17.65,61.82,2"/><polygon class="cls-1" points="57.3 75.86 50.28 69.33 61.8 69.33 73.31 69.33 66.29 75.86 57.3 75.86"/><path class="cls-3" d="M58.58,30a5.91,5.91,0,0,0-6-7,5.85,5.85,0,0,0-1.88.33A12.56,12.56,0,0,0,35.54,13,15.39,15.39,0,0,0,9.16,19.6h0A9.13,9.13,0,0,0,0,28.73,9.37,9.37,0,0,0,.11,30Z"/><path class="cls-3" d="M99.76,49.36h37.12v-.1a7.43,7.43,0,0,0-9.48-7.18,10.95,10.95,0,0,0-21.79,1.5v.07A6.69,6.69,0,0,0,99.76,49.36Z"/></g></g></svg>