<svg id="Layer_1" xmlns="http://www.w3.org/2000/svg" viewBox="0 0 57.2 30.3" height="42px">
  <style>
    .st0{fill:#fff}
  </style>
  <path class="st0" d="M52.2 10c.5-.1 1-.4 1.3-.8.1-.1.1-.2.2-.3.2-.3.3-.7.4-1 .1-.4.1-.7.2-1.1v-.5h-.6c-.1 0-.3 0-.4.1-.3.1-.6.2-.9.4-.1 0-.1.1-.2.1-.3.3-.6.6-.8.9-.1.3-.2.6-.3 1v.1c0 .4 0 .7.1 1.1h1zM54.8 17.5c-.5-.6-.9.1-1.5.6-.3.2-.7.4-1.1.4-.3-.2-.4-.7-.5-1.2-.1-.5 0-1.1 0-1.8.1-1.8.3-3.8-.9-3.8-.7 0-1.3.8-2 1.8-1.1 1.8-2.2 4.4-3.6 4.8H45c.6-1.7.8-3.5.5-4.8-.3-1.5-1.2-2.5-3-2.5-1.3 0-1.4.9-1.8 2-.3 1-.5 1.8-2.3 2.3.5-1.6.7-3.9-.9-4.4-.2-.1-.5-.1-.8-.1-.5 0-1.2.1-2 .4-1.6.6-2.8 1.9-3.8 3.2-.9 1.2-1.7 2.5-2.6 3.3-1.6 1.4-2.8.4-2.7-1.9 0-.3.1-.8.3-1.2.3-.7.8-1.4 1.3-2.2.6-1 1.3-2.1 1.8-3.2 0-.1 0-.2.1-.4.2-.5.3-1 .5-1.5.2-1.1.4-2.3.4-3.5 0-.7-.1-1.5-.2-2.3-.3-1.1-1.5-.4-1.8 0-.1.2-.3.4-.4.6-.9 1.4-1.7 2.8-2.3 4.4-.3.7-.5 1.3-.7 2.1-.1.4-.2.7-.3 1.1-.1.4-.2.8-.2 1.2-.1.4-.1.9-.2 1.3-.1 1.2-.2 2.4-.2 3.6-.3.8-1 1.7-1.7 2.2-.5.3-1 .6-1.5.6-.5.1-1-.1-1.3-.5-.2-.3-.4-.7-.5-1.3-.2-1.2.8-3.3 2-5.6l.6-1.2c.1-.2.2-.5.4-.7.6-1.1 1.1-2.3 1.5-3.3.3-.9.5-1.8.5-2.5v-.3c0-.8-.4-1.4-1.1-1.8-.4-.1-.7-.1-1 0-1 .3-1.7 1.5-2.3 2.7-.1.2-.1.3-.2.5l-.1.1-.1.2-.3.7c-.6 1.7-1.2 3.4-1.5 5.2-.3 1.5-.5 3-.5 4.4v.5c-.6 1.5-1.7 3-2.8 2.9-.1 0-.2-.1-.3-.2-.7-.8 0-3.2-1-3.1-1.5.1-2.8 1.1-3.8 2-.8.7-1.5 1.3-1.8 1.2-.1 0-.1-.1-.2-.1-.1-.2-.3-.5-.3-.9 0-1.1 1.7-2.4 2.6-2.8 2.1-1 4.8-.8 4.2-2.9 0-.2-.1-.4-.2-.6-1.8 0-3.4.5-4.7 1.3-.2.1-.4.3-.7.4-1.2.8-2.1 1.9-2.9 3.1 0 0-.2.3-.4.7-.4.6-.9 1.5-1.2 1.9-.3.6-1 1.5-.8 2 .2.5 1.7-1.6 1.8-1.2.2 1.8 2.2 1.6 2.8 1.4.7-.2 1.2-.6 1.7-1 .7-.5 1.3-1 2-1.2.1.6.3 1 .5 1.4.1.2.2.3.3.4.2.1.3.3.5.3.9.3 2.1-.3 3.1-1.2.8-.7 1.4-1.5 1.7-2.1.1.4.3.9.4 1.3.3.7.7 1.4 1.2 1.7.6.3 1.2.4 1.6.4 1.6 0 2.5-1.5 3.2-2.4.1-.2.3-.4.5-.6 0 .3 0 .5.1.8.2.8.6 1.4 1.2 1.8 1.1.5 2 .3 2.8-.3.4-.4.8-.8 1.2-1.4.5-.8 1-1.7 1.5-2.4-.6 2.4 0 3.6.5 3.9.2.1.3.2.5.3.4.2.9.3 1.4.3.4 0 .8-.1 1.2-.2 1.4-.5 2.7-1.9 3.2-2.8 0-.1.1-.2.1-.2.1-.3.4-.7.4-.7 2.1-.4 3.5-1.7 4.3-2.4.3-.3.5-.6.6-.5.1.1.2.2.2.3 1.2 1.8-.4 4.2-.5 6.3v.2c.5.1 1.1 0 1.6-.1 1.1-.3 2.1-1.1 2.9-2 .9-.9 1.7-1.8 2.6-2.4.3.4.3 1.1.2 1.9-.1 1.1-.2 2.2.5 2.4 1.1.3 2.2 0 3-.5 1.4-.7 2.1-1.8 1.7-2.6zm-29-5.7c.1-.8.3-1.6.5-2.3.3-.8.6-1.6 1-2.4.2-.4.4-.7.6-1 0 .2 0 .3.1.5v.7c0 .8-.2 1.5-.5 2.2-.3.9-.8 1.8-1.2 2.6-.2.3-.3.6-.4.9-.1-.5-.1-.9-.1-1.2zM19 10.4c.3-1.1.8-2.3 1.3-3.2.2-.4.5-.8.7-1.1.1.6 0 1.3-.1 1.9-.2.7-.4 1.4-.8 2.1-.4.9-.9 1.8-1.2 2.7v.1c-.2-.7-.1-1.6.1-2.5zm17.1 6.8c-1.1 1.6-2.2 1.7-3.1 1.5-.1 0-.2 0-.2-.1-1-.3-1.2-1.5-.4-3.2 0-.1 0-.1.1-.2.6-1.3 2-2.6 3.1-2.9-.6.6-1 1.4-1 1.9-.1.7.2 1.3.5 1.6l.4.4c.2.2.5.3.5.3.1.1.2.1.3.1 0 .3-.1.5-.2.6zm.9-1.8c-.2 0-.3 0-.5-.1-.3-.1-.6-.3-.8-.5 0 0 0-.1-.1-.1-.1-.2-.1-.3-.1-.5 0-.3.1-.5.1-.6.1-.3.4-.9.7-1.2.1 0 .3.1.4.2.6.5.5 1.8.3 2.8z"/>
</svg>