<?xml version="1.0" encoding="utf-8"?>
<!-- Generator: Adobe Illustrator 16.0.0, SVG Export Plug-In . SVG Version: 6.00 Build 0)  -->
<!DOCTYPE svg PUBLIC "-//W3C//DTD SVG 1.1//EN" "http://www.w3.org/Graphics/SVG/1.1/DTD/svg11.dtd" [
	<!ENTITY ns_flows "http://ns.adobe.com/Flows/1.0/">
	<!ENTITY ns_extend "http://ns.adobe.com/Extensibility/1.0/">
	<!ENTITY ns_ai "http://ns.adobe.com/AdobeIllustrator/10.0/">
	<!ENTITY ns_graphs "http://ns.adobe.com/Graphs/1.0/">
]>
<svg version="1.1" id="Layer_1" xmlns:x="&ns_extend;" xmlns:i="&ns_ai;" xmlns:graph="&ns_graphs;"
	 xmlns="http://www.w3.org/2000/svg" xmlns:xlink="http://www.w3.org/1999/xlink" xmlns:a="http://ns.adobe.com/AdobeSVGViewerExtensions/3.0/"
	 x="0px" y="0px" width="57.228px" height="21.749px" viewBox="0 0 57.228 21.749" enable-background="new 0 0 57.228 21.749"
	 xml:space="preserve">
<g>
	<g>
		<path fill="#EA3213" d="M50.845,11.729c1.257,0.009,1.024,1.934,0.912,3.758l-2.874-2.008
			C49.503,12.478,50.137,11.726,50.845,11.729z"/>
	</g>
	<g>
		<path fill="#EA3213" d="M45.613,13.533c0.286,1.388,0.026,3.171-0.53,4.835c0.076-0.01,0.152-0.026,0.228-0.049l-1.147,2.312
			c-0.364,0.101-0.753,0.152-1.168,0.147c-0.128-0.002-0.259-0.009-0.393-0.023c0.001-0.059,0.004-0.119,0.008-0.18
			c0.123-2.106,1.716-4.554,0.474-6.345L45.613,13.533z"/>
	</g>
	<g>
		<path fill="#EA3213" d="M37.551,10.94l-0.805,1.646c-0.098-0.089-0.213-0.154-0.352-0.188c-0.285,0.229-0.564,0.86-0.691,1.188
			c-0.049,0.125-0.199,0.732,0.014,1.112l-0.604,1.238c-0.347-0.377-0.63-0.916-0.537-1.648c0.062-0.518,0.456-1.329,1.017-1.909
			c-1.1,0.286-2.462,1.555-3.104,2.889l-1.598-0.839c0.999-1.356,2.146-2.65,3.772-3.208C35.971,10.772,36.902,10.726,37.551,10.94z
			"/>
	</g>
	<g>
		<path fill="#EA3213" d="M36.126,17.178l1.27,0.665c-0.563,0.896-1.865,2.24-3.213,2.78c-0.954,0.383-1.831,0.305-2.611-0.085
			l1.484-1.832C33.944,18.925,35.065,18.763,36.126,17.178z"/>
	</g>
	<g>
		<path fill="#EA3213" d="M13.389,18.399l-1.962,1.984c-0.119-0.113-0.229-0.249-0.33-0.414c-0.206-0.342-0.37-0.793-0.479-1.379
			c-0.743,0.166-1.342,0.688-1.998,1.193l-1.865-1.375c0.018,0.008,0.033,0.014,0.051,0.019c0.368,0.103,0.997-0.439,1.823-1.167
			c1.007-0.888,2.307-1.931,3.783-2.003C13.436,15.226,12.697,17.625,13.389,18.399z"/>
	</g>
	<g>
		<path fill="#EA3213" d="M21.926,17.878l1.394,0.513c-0.714,0.965-1.657,2.406-3.249,2.432l0.38-2.311
			C20.93,18.459,21.447,18.226,21.926,17.878z"/>
	</g>
	<g>
		<path fill="#EA3213" d="M27.422,9.358l1.486-0.103c-0.459,1.129-1.127,2.218-1.748,3.214c-0.51,0.818-0.987,1.574-1.292,2.237
			l-2.04-2.591c0.05-0.447,0.109-0.879,0.179-1.302c0.07-0.423,0.149-0.835,0.238-1.236l2.086-0.146
			c-0.247,0.785-0.431,1.584-0.515,2.333c-0.042,0.375-0.059,0.738-0.046,1.079c0.125-0.286,0.269-0.581,0.42-0.884
			C26.599,11.144,27.069,10.27,27.422,9.358z"/>
	</g>
	<g>
		<path fill="#EA3213" d="M23.67,3.228c0.037,0.752-0.185,1.659-0.554,2.646l-4.145-1.147c0.02-0.048,0.039-0.096,0.059-0.144
			c0.067-0.166,0.139-0.333,0.212-0.498c0.533-1.206,1.236-2.382,2.276-2.663c0.305-0.082,0.64-0.088,1.007,0.006
			C23.294,1.793,23.63,2.423,23.67,3.228z"/>
	</g>
	<g>
		<path fill="#EA3213" d="M6.755,18.409l1.865,1.375c-0.513,0.394-1.061,0.776-1.742,0.969c-0.595,0.169-2.601,0.328-2.755-1.42
			c-0.054-0.426-1.577,1.716-1.783,1.183c-0.204-0.533,0.44-1.367,0.79-1.997c0.218-0.396,0.764-1.297,1.151-1.934l2.312,1.704
			C6.647,18.345,6.702,18.384,6.755,18.409z"/>
	</g>
	<g>
		<path fill="#EA3213" d="M13.17,11.627l-5.546,1.193c0.211-0.15,0.432-0.296,0.66-0.434c1.298-0.776,2.87-1.313,4.688-1.3
			C13.061,11.282,13.126,11.46,13.17,11.627z"/>
	</g>
	<g>
		<path fill="#EA3213" d="M25.2,6.452l2.109,0.585c-0.036,0.067-0.07,0.137-0.104,0.208c-0.328,0.672-0.63,1.422-0.873,2.188
			l-2.086,0.145c0.081-0.36,0.168-0.711,0.263-1.054C24.708,7.801,24.938,7.113,25.2,6.452z"/>
	</g>
	<g>
		<path fill="#EA3213" d="M27.95,7.151l1.578,0.21c-0.129,0.486-0.282,0.976-0.462,1.479c-0.049,0.139-0.103,0.277-0.158,0.415
			l-1.486,0.103C27.699,8.643,27.903,7.905,27.95,7.151z"/>
	</g>
	<g>
		<path fill="#EA3213" d="M23.911,18.61l3.93,1.454c-0.732,0.596-1.616,0.83-2.776,0.316C24.491,19.995,24.084,19.406,23.911,18.61z
			"/>
	</g>
	<g>
		<path fill="#EA3213" d="M54.298,6.333c-0.009,0.158-0.021,0.312-0.035,0.466c-0.034,0.377-0.084,0.739-0.161,1.075
			c-0.087,0.383-0.209,0.731-0.38,1.032l-0.021-2.548C53.892,6.334,54.091,6.325,54.298,6.333z"/>
	</g>
	<g>
		<path fill="#EA3213" d="M54.805,17.502c0.418,0.843-0.288,1.931-1.441,2.588l-0.083-1.994
			C53.904,17.614,54.334,16.888,54.805,17.502z"/>
	</g>
	<g>
		<path fill="#EA3213" d="M51.168,8.837l2.353,0.373c-0.066,0.085-0.139,0.163-0.218,0.236c-0.275,0.258-0.626,0.439-1.075,0.523
			c-0.279,0.053-0.595,0.068-0.956,0.039c-0.098-0.364-0.133-0.721-0.112-1.061C51.161,8.912,51.165,8.875,51.168,8.837z"/>
	</g>
	<g>
		<path fill="#EA3213" d="M48.883,13.479l2.874,2.008c-0.038,0.624-0.063,1.237-0.01,1.757l-1.872,0.947
			c0.061-0.769,0.097-1.523-0.208-1.909c-1.832,1.241-3.223,3.718-5.504,4.35l1.147-2.312C46.686,17.906,47.76,15.288,48.883,13.479
			z"/>
	</g>
	<g>
		<path fill="#EA3213" d="M33.056,18.707l-1.484,1.832c-0.178-0.089-0.351-0.194-0.519-0.313c-0.495-0.354-1.117-1.49-0.538-3.926
			c-0.498,0.726-0.969,1.615-1.499,2.402l-0.739-0.938c0.915-0.821,1.704-2.103,2.614-3.333l1.598,0.839
			c-0.025,0.052-0.051,0.105-0.073,0.158c-0.76,1.744-0.602,2.878,0.41,3.212C32.898,18.664,32.977,18.687,33.056,18.707z"/>
	</g>
	<g>
		<path fill="#EA3213" d="M20.082,10.138l1.146-0.247c-0.214,0.41-0.429,0.818-0.638,1.223l-1.707,1.728
			C19.194,11.982,19.663,11.073,20.082,10.138z"/>
	</g>
	<g>
		<path fill="#EA3213" d="M17.059,10.789l1.945-0.419c-0.229,0.911-0.314,1.792-0.152,2.504l-2.332,2.358
			C16.58,13.684,16.768,12.206,17.059,10.789z"/>
	</g>
	<g>
		<path fill="#EA3213" d="M53.701,6.358l0.021,2.548c-0.007,0.015-0.015,0.028-0.023,0.043c-0.054,0.093-0.113,0.18-0.178,0.262
			l-2.353-0.373c0.035-0.344,0.129-0.67,0.274-0.964c0.184-0.369,0.448-0.691,0.785-0.944c0.062-0.047,0.127-0.089,0.191-0.131
			c0.262-0.164,0.557-0.29,0.884-0.368C53.432,6.398,53.564,6.375,53.701,6.358z"/>
	</g>
	<g>
		<path fill="#EA3213" d="M53.28,18.096l0.083,1.994c-0.856,0.488-1.96,0.738-3.034,0.473c-0.667-0.2-0.537-1.303-0.454-2.372
			l1.872-0.947c0.055,0.521,0.188,0.949,0.468,1.201C52.633,18.503,52.979,18.328,53.28,18.096z"/>
	</g>
	<g>
		<path fill="#EA3213" d="M45.613,13.533l-2.529,0.698c-0.072-0.104-0.152-0.206-0.244-0.306c-0.089-0.012-0.299,0.215-0.637,0.547
			c-0.76,0.749-2.167,2.044-4.301,2.418c-0.012,0.027-0.228,0.445-0.362,0.706c-0.041,0.076-0.089,0.16-0.145,0.247l-1.27-0.665
			c0.083-0.124,0.165-0.256,0.247-0.396c-0.154-0.05-0.198-0.082-0.308-0.146c-0.067-0.038-0.285-0.143-0.533-0.326
			c-0.137-0.1-0.283-0.224-0.42-0.372l0.604-1.238c0.018,0.03,0.036,0.059,0.059,0.088c0.174,0.229,0.502,0.421,0.773,0.51
			c0.155,0.05,0.312,0.08,0.47,0.097c0.218-1.013,0.273-2.305-0.272-2.808l0.805-1.646c1.631,0.542,1.46,2.746,0.942,4.396
			c1.774-0.509,1.987-1.299,2.324-2.306c0.338-1.005,0.43-1.948,1.785-1.96C44.405,11.055,45.312,12.076,45.613,13.533z"/>
	</g>
	<g>
		<path fill="#EA3213" d="M29.971,3.804c0.015,1.163-0.115,2.222-0.375,3.29c-0.021,0.088-0.044,0.178-0.067,0.267l-1.578-0.21
			c0-0.019,0.001-0.038,0.003-0.057c0.009-0.191,0.009-0.384-0.003-0.576c-0.011-0.167-0.03-0.334-0.06-0.501
			c-0.197,0.304-0.394,0.647-0.582,1.02L25.2,6.451c0.621-1.57,1.407-2.989,2.325-4.349c0.135-0.201,0.274-0.4,0.415-0.6
			c0.324-0.454,1.478-1.125,1.823-0.055c0.003,0.011,0.007,0.021,0.011,0.033C29.897,2.315,29.962,3.081,29.971,3.804z"/>
	</g>
	<g>
		<path fill="#EA3213" d="M28.276,17.763l0.739,0.938c-0.356,0.527-0.738,1.008-1.175,1.362l-3.93-1.454
			c-0.056-0.252-0.088-0.526-0.094-0.822c-0.156,0.152-0.319,0.363-0.497,0.604l-1.394-0.513c0.751-0.544,1.416-1.362,1.726-2.208
			c-0.008-1.272,0.054-2.452,0.177-3.555l2.04,2.591c-0.202,0.443-0.329,0.846-0.334,1.198c-0.031,2.25,1.144,3.289,2.735,1.864
			C28.271,17.767,28.274,17.765,28.276,17.763z"/>
	</g>
	<g>
		<path fill="#EA3213" d="M18.972,4.727l4.145,1.147c-0.387,1.037-0.936,2.165-1.518,3.3c-0.122,0.238-0.247,0.479-0.371,0.717
			l-1.146,0.247c0.313-0.702,0.6-1.419,0.771-2.142c0.151-0.637,0.213-1.276,0.126-1.917c-0.218,0.306-0.445,0.666-0.665,1.062
			c-0.53,0.953-1.028,2.113-1.309,3.229l-1.945,0.419c0.374-1.822,0.917-3.544,1.564-5.179c0.088-0.223,0.179-0.458,0.275-0.702
			C18.923,4.848,18.947,4.789,18.972,4.727z"/>
	</g>
	<g>
		<path fill="#EA3213" d="M18.883,12.841l1.707-1.728c-1.157,2.232-2.154,4.307-1.967,5.561c0.088,0.582,0.261,1.009,0.491,1.305
			c0.346,0.44,0.819,0.59,1.336,0.533l-0.38,2.311c-0.481,0.008-1.024-0.113-1.638-0.419c-0.521-0.308-0.915-0.995-1.206-1.705
			c-0.189-0.462-0.337-0.937-0.449-1.319c-0.314,0.667-0.947,1.476-1.695,2.139c-0.999,0.886-2.201,1.511-3.122,1.191
			c-0.191-0.066-0.37-0.173-0.533-0.326l1.962-1.984c0.078,0.085,0.173,0.152,0.29,0.191c1.093,0.097,2.212-1.38,2.825-2.856
			c0.004-0.168,0.009-0.336,0.016-0.502l2.332-2.358c0.003,0.01,0.004,0.022,0.008,0.033C18.867,12.885,18.875,12.864,18.883,12.841
			z"/>
	</g>
	<g>
		<path fill="#EA3213" d="M13.17,11.627c0.575,2.094-2.132,1.946-4.232,2.927c-0.94,0.438-2.651,1.732-2.636,2.827
			c0.017,0.461,0.145,0.75,0.291,0.907l-2.312-1.704c0.232-0.381,0.409-0.668,0.428-0.697c0.613-0.974,1.598-2.132,2.915-3.066
			L13.17,11.627z"/>
	</g>
</g>
</svg>
