<svg xmlns="http://www.w3.org/2000/svg" viewBox="0 0 116.9 25.5" height="22">
  <path d="M0 18.9h16.3l-2.4-5.3H9l2.5-5.1-3.2-6.7L0 18.9zM106.8 4h-2.1c.1-1.2.5-2.2 1.2-2.9.7-.7 1.6-1.1 2.8-1.1.7 0 1.3.1 1.9.5.5.3 1 .7 1.3 1.3s.5 1.1.5 1.7c0 .7-.2 1.4-.6 2.2-.4.8-1.1 1.7-2.1 2.8l-1.3 1.3h4.1v2h-7.9v-1.1l3.5-3.6c.8-.8 1.4-1.6 1.7-2.1.3-.5.4-1 .4-1.4 0-.5-.1-.8-.5-1.1-.3-.3-.7-.4-1.1-.4-.5 0-.8.2-1.2.5-.5.3-.6.8-.6 1.4m6.9-3.7h3.2v11.5h-2.2V2.3h-2.3l1.3-2zM9.1.3l8.8 18.6h6.4L15.6.3H9.1zm15.6 4.4h4v1.6h.1c.8-1.1 2.2-2 4.4-2 5 0 6.9 4.4 6.9 7.7 0 4.1-2.9 7.4-6.9 7.4-2.5 0-3.8-1.2-4.3-1.8v7.9h-4.2V4.7zm11.1 7.2c0-1.7-1.2-3.6-3.5-3.6s-3.5 1.9-3.5 3.6c0 1.8 1.3 3.6 3.5 3.6s3.5-1.9 3.5-3.6m5.5-7.2h4v1.6h.1c.8-1.1 2.2-2 4.4-2 5 0 6.9 4.4 6.9 7.7 0 4.1-2.9 7.4-6.9 7.4-2.5 0-3.8-1.2-4.3-1.8v7.9h-4.2V4.7zm11.2 7.2c0-1.7-1.2-3.6-3.5-3.6s-3.5 1.9-3.5 3.6c0 1.8 1.3 3.6 3.5 3.6s3.5-1.9 3.5-3.6m20.4 7h-4.2v-1.6c-.7 1.4-2.5 2-4.1 2-4.5 0-7.1-3.5-7.1-7.6 0-4.6 3.3-7.6 7.1-7.6 2.3 0 3.6 1.1 4.1 2V4.7h4.2v14.2zm-7.8-3.4c2.7 0 3.5-2.2 3.5-3.6 0-1.7-1.2-3.6-3.6-3.6-2.4 0-3.5 2-3.5 3.6 0 1.3 1 3.6 3.6 3.6m9.6-10.8h4v1.5c.3-.7 1.1-2 3.5-2v4.3c-2 0-3.3.5-3.3 2.6v7.8h-4.2V4.7zm21.7 9.8c-.7 1.6-1.7 2.8-2.9 3.6-1.2.8-2.6 1.3-4 1.3-4.1 0-7.5-3.3-7.5-7.5 0-4 3.1-7.6 7.4-7.6 4.3 0 7.5 3.5 7.5 7.7 0 .5-.1.8-.1 1.1H86.2c.3 1.7 1.6 2.7 3.3 2.7 1.3 0 2-.6 2.6-1.3h4.3zm-3.7-4.3c-.2-.8-1-2.4-3.2-2.4s-3 1.6-3.2 2.4h6.4zM98.1 0h4.2v18.9h-4.2V0z" fill="#fff"/>
</svg>