<svg baseProfile="tiny" xmlns="http://www.w3.org/2000/svg" width="129" height="20px"><path fill="#FFF" d="M57.079 17.881v-4.523c0-2.143-.763-3.391-2.397-3.686 1.9-.501 2.42-2.096 2.42-4.136 0-2.88-1.036-4.668-4.39-4.668H46.7l.002 18.632h4.002v-8.099h.986c.964 0 1.418.664 1.418 1.551v4.958c0 .821.17 1.433.28 1.59h4.047c-.139-.153-.356-.796-.356-1.619zM51.76 8.262l-1.057.024V4.068h1.211c.915 0 1.215.671 1.215 2.14.001 1.466-.334 2.054-1.369 2.054zM12.198 16.334c.717-.6.838-1.336.838-1.999v-2.786H9.147v3.779c0 .54-.438.978-.979.978s-.942-.438-.942-.978V4.619c0-.54.402-.979.942-.979s.979.439.979.979v3.804h3.884V4.478c0-2.182-1.423-3.975-4.896-3.978-3.563 0-4.911 1.802-4.911 3.981v11.184c0 2.157 1.715 3.794 3.91 3.794H8.34l3.858-3.125zM119.076 17.871V13.35c0-2.144-.762-3.391-2.397-3.685 1.901-.503 2.419-2.098 2.419-4.139 0-2.879-1.035-4.668-4.39-4.668h-6.012v18.635h4.014v-8.101h.978c.963 0 1.418.662 1.418 1.55v4.957c0 .822.169 1.433.28 1.594h4.046c-.139-.153-.356-.8-.356-1.622zm-5.319-9.62h-1.062V4.057h1.216c.916 0 1.216.673 1.216 2.139 0 1.47-.334 2.055-1.37 2.055zM104.087.822h-5.381l-3.196 18.67h4.052l.395-3.297h2.896l.396 3.297h4.054L104.087.822zm-3.722 11.967l1.039-8.695 1.04 8.695h-2.079zM77.259 19.492V.863h4.102v15.091h4.28v3.538h-8.382M70.984 19.492h4.102V.863h-4.102v18.629"/><path fill="#FFF" d="M77.259 19.492V.863h4.102v15.091h4.28v3.538h-8.382M86.626 19.492V.863h4.103v15.091h4.278v3.538h-8.381M65.303.863h-6.256l.001 18.635h4.011v-7.394h2.244c3.683 0 4.305-2.348 4.305-5.619-.001-3.274-.623-5.622-4.305-5.622zm-1.035 7.942l-1.224-.014V4.065h1.217c1.041 0 1.215.712 1.215 2.419.001 1.762-.173 2.321-1.208 2.321zM39.771 4.414v3.69h4.251v3.65h-4.251v4.137l5.045-.002.002 3.594-9.153.006V.86h-.003 8.987v3.554zM27.533 16.772V4.484h-2.684V.863h9.714v3.621h-2.696v14.952h-1.152z"/><path fill="#FFF" d="M29.273 19.464l-9.459-7.928-9.806 7.928z"/><path fill="#FFF" d="M22.514.885h-5.422L13.935 15.05l5.88-4.742 6.13 5.134L22.514.885zm-3.748 8.514l1.049-5.356 1.041 5.356h-2.09zM125.776 3.378a2.726 2.726 0 0 1-2.725 2.744 2.734 2.734 0 0 1-2.738-2.744 2.723 2.723 0 0 1 2.738-2.731 2.714 2.714 0 0 1 2.725 2.731zm-.516 0a2.217 2.217 0 1 0-4.433 0 2.23 2.23 0 0 0 2.225 2.231c1.212 0 2.208-1.006 2.208-2.231zm-2.553 1.577h-.718V1.777h1.327c.491 0 .806.294.806.838 0 .402-.168.704-.636.776v.013c.154.008.623.044.623.619 0 .205.013.798.08.932h-.703c-.098-.191-.098-.402-.098-.616 0-.374.06-.699-.498-.699h-.184v1.315zm0-1.761h.323c.286 0 .374-.266.374-.472 0-.298-.147-.418-.374-.418h-.323v.89z"/></svg>