<svg id="Layer_1" xmlns="http://www.w3.org/2000/svg" viewBox="0 0 1158 346.2" height="40px"><style>.st0{fill:#fff}</style><path class="st0" d="M579.3 225.5c-4.7 4.3-14.3 13.2-33.5 13.2-31.7 0-51.2-25.7-51.2-59.2 0-36.5 23.7-60.8 56-60.8 30.1 0 44.7 19.3 50 26.2l-21.6 13c-4-6.1-10.6-16.1-26.4-16.1-21.6 0-29.8 17.9-29.8 36.8 0 12.9 3.5 23.3 9 29 4.3 4.7 12.1 8.2 20.8 8.2 5.1 0 10.9-1.3 15.6-4.3 7.4-4.8 8.4-10.9 9.2-16.9H552V173h49.4v63.1h-22.2v-10.6zM701.9 194c0 21.2-12.2 44.6-45 44.6-23.6 0-45.2-13.5-45.2-44.6 0-25.7 16.2-46.2 48.4-44.4 34.2 1.9 41.8 29.1 41.8 44.4zm-61.2-16.6c-3.1 4.8-4.2 10.6-4.2 16.4 0 13.4 6.4 25.1 20.3 25.1 13.4 0 20-10.8 20-24 0-9.3-2.3-16.6-6.9-21.1-5.1-4.8-10.9-5-14.5-4.7-7.1.6-11.3 3-14.7 8.3zM702.2 152.2h26.1c10.3 37.3 12.1 45 14.8 61.1 3.4-18.7 3.9-20.8 8.8-40.5l5.1-20.6h25.4l-27.2 84h-25.9l-27.1-84zM888.2 122.6v113.6h-28.5v-48.4h-41.5v48.4h-28.6V122.6h28.6v41h41.5v-41h28.5zM904.3 176c.5-5.8 1.3-12.7 8.8-18.7 7.7-6.1 17.7-7.4 27.5-7.4 10.3 0 35.2 2.4 35.2 24.1v49c0 9 .5 10.3 2.4 13.2H954v-7.7c-6.3 4.7-13.4 10-25.7 10-19.3 0-27.5-13.8-27.5-25.6 0-13.5 10.8-21.2 17.7-24.1 6.8-2.9 22.7-5.8 33.1-7.7v-4.5c-.3-3.9-.6-10.3-9.5-10.3-10.9 0-12.4 6.8-13 9.8l-24.8-.1zm31.3 25.2c-4.2 1.6-10.6 4-10.6 10.5 0 4 3.5 8.5 9.3 8.5 3.1 0 6-1.1 8.5-2.7 8.2-5.1 8.5-12.9 8.7-21.6l-15.9 5.3zM1066.1 216.4c-3.1 4.8-6.4 10.1-13.2 15-6.4 4.5-14.6 7.6-24.1 7.6-16.1 0-41.7-9.7-41.7-43.9 0-24.5 14.2-45 42.2-45 9.3 0 25.3 2.6 35.9 20.1l-18.3 10.5c-1.4-3.1-3.1-6-7.1-8.8-2.4-1.6-5.5-2.9-9.3-2.9-13.4 0-17.9 15.3-17.9 25.4 0 11.1 5.5 25.1 18.7 25.1 1.3 0 7.4 0 12.6-5.8 2.1-2.4 2.9-4.3 3.7-6.8l18.5 9.5zM1073 122.6h24.3V181l27.2-28.8h29.8l-29 29.9 32.7 54.1h-28.6l-21.6-36.2-10.6 10v26.2H1073V122.6z"/><g><path class="st0" d="M239.9 0l118.2 45.9 118.2 45.9H3.5l118.2-45.9zM0 261.5h479.9v24.7H0zM10.9 245.7H469v10.9H10.9zM10.9 96.8H469v10.9H10.9zM38.2 131c6.1 0 11-4.9 11-11s-4.9-11-11-11-11 4.9-11 11 4.9 11 11 11zm18.5 2.4c-3.6-1.4-9.9-.6-9.9-.6s-4 6.6-6.2 9.8c-.8 1.2-1.6 1.5-2.4 1.4-.7.1-1.6-.2-2.4-1.4-2.2-3.2-6.2-9.8-6.2-9.8s-6.3-.8-9.9.6c-1.8.7-2.9 2.7-2.9 4.6 0 12.5.7 38 1.2 42.5s5.1 4.6 6.1 3c0-1.8 2.1 53 2.8 57.2.4 2.9 2.4 3.5 4 3.5h14.5c1.6 0 3.6-.6 4-3.5.7-4.2 2.8-59 2.8-57.2 1 1.6 5.6 1.5 6.1-3s1.2-30 1.2-42.5c.1-2-1-4-2.8-4.6zM95.9 131c6.1 0 11-4.9 11-11s-4.9-11-11-11-11 4.9-11 11c-.1 6.1 4.9 11 11 11zm18.4 2.4c-3.6-1.4-9.9-.6-9.9-.6s-4 6.6-6.2 9.8c-.8 1.2-1.6 1.5-2.4 1.4-.7.1-1.6-.2-2.4-1.4-2.2-3.2-6.2-9.8-6.2-9.8s-6.3-.8-9.9.6c-1.8.7-2.9 2.7-2.9 4.6 0 12.5.7 38 1.2 42.5s5.1 4.6 6.1 3c0-1.8 2.1 53 2.8 57.2.4 2.9 2.4 3.5 4 3.5H103c1.6 0 3.6-.6 4-3.5.7-4.2 2.8-59 2.8-57.2 1 1.6 5.6 1.5 6.1-3s1.2-30 1.2-42.5c.1-2-1-4-2.8-4.6zM153.5 131c6.1 0 11-4.9 11-11s-4.9-11-11-11-11 4.9-11 11 4.9 11 11 11zm18.5 2.4c-3.6-1.4-9.9-.6-9.9-.6s-4 6.6-6.2 9.8c-.8 1.2-1.6 1.5-2.4 1.4-.7.1-1.6-.2-2.4-1.4-2.2-3.2-6.2-9.8-6.2-9.8s-6.3-.8-9.9.6c-1.8.7-2.9 2.7-2.9 4.6 0 12.5.7 38 1.2 42.5s5.1 4.6 6.1 3c0-1.8 2.1 53 2.8 57.2.4 2.9 2.4 3.5 4 3.5h14.5c1.6 0 3.6-.6 4-3.5.7-4.2 2.8-59 2.8-57.2 1 1.6 5.6 1.5 6.1-3s1.2-30 1.2-42.5c.1-2-1.1-4-2.8-4.6zM211.1 131c6.1 0 11-4.9 11-11s-4.9-11-11-11-11 4.9-11 11 4.9 11 11 11zm18.5 2.4c-3.6-1.4-9.9-.6-9.9-.6s-4 6.6-6.2 9.8c-.8 1.2-1.6 1.5-2.4 1.4-.7.1-1.6-.2-2.4-1.4-2.2-3.2-6.2-9.8-6.2-9.8s-6.3-.8-9.9.6c-1.8.7-2.9 2.7-2.9 4.6 0 12.5.7 38 1.2 42.5s5.1 4.6 6.1 3c0-1.8 2.1 53 2.8 57.2.4 2.9 2.4 3.5 4 3.5h14.5c1.6 0 3.6-.6 4-3.5.7-4.2 2.8-59 2.8-57.2 1 1.6 5.6 1.5 6.1-3s1.2-30 1.2-42.5c.1-2-1-4-2.8-4.6zM268.8 131c6.1 0 11-4.9 11-11s-4.9-11-11-11-11 4.9-11 11c-.1 6.1 4.9 11 11 11zm18.4 2.4c-3.6-1.4-9.9-.6-9.9-.6s-4 6.6-6.2 9.8c-.8 1.2-1.6 1.5-2.4 1.4-.7.1-1.6-.2-2.4-1.4-2.2-3.2-6.2-9.8-6.2-9.8s-6.3-.8-9.9.6c-1.8.7-2.9 2.7-2.9 4.6 0 12.5.7 38 1.2 42.5s5.1 4.6 6.1 3c0-1.8 2.1 53 2.8 57.2.4 2.9 2.4 3.5 4 3.5H276c1.6 0 3.6-.6 4-3.5.7-4.2 2.8-59 2.8-57.2 1 1.6 5.6 1.5 6.1-3s1.2-30 1.2-42.5c0-2-1.1-4-2.9-4.6zM326.4 131c6.1 0 11-4.9 11-11s-4.9-11-11-11-11 4.9-11 11 4.9 11 11 11zm18.5 2.4c-3.6-1.4-9.9-.6-9.9-.6s-4 6.6-6.2 9.8c-.8 1.2-1.6 1.5-2.4 1.4-.7.1-1.6-.2-2.4-1.4-2.2-3.2-6.2-9.8-6.2-9.8s-6.3-.8-9.9.6c-1.8.7-2.9 2.7-2.9 4.6 0 12.5.7 38 1.2 42.5s5.1 4.6 6.1 3c0-1.8 2.1 53 2.8 57.2.4 2.9 2.4 3.5 4 3.5h14.5c1.6 0 3.6-.6 4-3.5.7-4.2 2.8-59 2.8-57.2 1 1.6 5.6 1.5 6.1-3s1.2-30 1.2-42.5c.1-2-1.1-4-2.8-4.6zM384 131c6.1 0 11-4.9 11-11s-4.9-11-11-11-11 4.9-11 11 4.9 11 11 11zm18.5 2.4c-3.6-1.4-9.9-.6-9.9-.6s-4 6.6-6.2 9.8c-.8 1.2-1.6 1.5-2.4 1.4-.7.1-1.6-.2-2.4-1.4-2.2-3.2-6.2-9.8-6.2-9.8s-6.3-.8-9.9.6c-1.8.7-2.9 2.7-2.9 4.6 0 12.5.7 38 1.2 42.5s5.1 4.6 6.1 3c0-1.8 2.1 53 2.8 57.2.4 2.9 2.4 3.5 4 3.5h14.5c1.6 0 3.6-.6 4-3.5.6-4.2 2.8-59 2.8-57.2 1 1.6 5.6 1.5 6.1-3s1.2-30 1.2-42.5c.1-2-1-4-2.8-4.6zM441.7 131c6.1 0 11-4.9 11-11s-4.9-11-11-11-11 4.9-11 11c-.1 6.1 4.9 11 11 11zm18.4 2.4c-3.6-1.4-9.9-.6-9.9-.6s-4 6.6-6.2 9.8c-.8 1.2-1.6 1.5-2.4 1.4-.7.1-1.6-.2-2.4-1.4-2.2-3.2-6.2-9.8-6.2-9.8s-6.3-.8-9.9.6c-1.8.7-2.9 2.7-2.9 4.6 0 12.5.7 38 1.2 42.5s5.1 4.6 6.1 3c0-1.8 2.1 53 2.8 57.2.4 2.9 2.4 3.5 4 3.5h14.5c1.6 0 3.6-.6 4-3.5.7-4.2 2.8-59 2.8-57.2 1 1.6 5.6 1.5 6.1-3s1.2-30 1.2-42.5c.1-2-1-4-2.8-4.6z"/></g></svg>